<svg height="511pt" viewBox="-139 1 511 511.999" width="511pt" xmlns="http://www.w3.org/2000/svg"><path d="m126.5625 137.523438v-8.035157c0-23.195312-18.867188-42.066406-42.0625-42.066406-7.871094 0-14.269531-6.398437-14.269531-14.269531 0-7.867188 6.398437-14.269532 14.269531-14.269532h99.214844c26.933594 0 48.847656-21.914062 48.847656-48.851562 0-5.539062-4.492188-10.03125-10.03125-10.03125s-10.035156 4.492188-10.035156 10.03125c0 15.875-12.910156 28.785156-28.78125 28.785156h-99.214844c-18.933594 0-34.335938 15.402344-34.335938 34.335938s15.402344 34.335937 34.335938 34.335937c12.128906 0 22 9.867188 22 22v8.035157c-59.042969 3.511718-106 52.652343-106 112.558593v149.152344c0 62.179687 50.585938 112.765625 112.761719 112.765625h6.539062c62.179688 0 112.761719-50.585938 112.761719-112.765625v-149.152344c0-59.90625-46.957031-109.046875-106-112.558593zm-19.148438 95.589843c0-4.425781 3.597657-8.027343 8.023438-8.027343h1.152344c4.425781 0 8.023437 3.601562 8.023437 8.027343v38.386719c0 4.425781-3.597656 8.027344-8.023437 8.027344h-1.152344c-4.425781 0-8.023438-3.601563-8.023438-8.027344zm105.085938 166.121094c0 49.015625-38.242188 89.261719-86.453125 92.484375v-60.476562c0-5.539063-4.492187-10.03125-10.035156-10.03125-5.539063 0-10.03125 4.492187-10.03125 10.03125v60.40625c-47.722657-3.726563-85.417969-43.75-85.417969-92.414063v-149.152344c0-48.839843 37.96875-88.976562 85.9375-92.453125v48.859375c-11.121094 3.746094-19.152344 14.261719-19.152344 26.625v38.386719c0 15.492188 12.601563 28.09375 28.089844 28.09375h1.152344c15.488281 0 28.089844-12.601562 28.089844-28.09375v-38.386719c0-11.976562-7.539063-22.222656-18.117188-26.253906v-49.226563c47.96875 3.476563 85.933594 43.609376 85.933594 92.449219v149.152344zm0 0" fill="#fff"/><path d="m125.371094 387.71875c-1.851563-5.222656-7.582032-7.957031-12.808594-6.109375-5.222656 1.851563-7.957031 7.585937-6.105469 12.808594l.199219.566406c1.457031 4.117187 5.328125 6.6875 9.457031 6.6875 1.109375 0 2.242188-.1875 3.347657-.578125 5.226562-1.851562 7.960937-7.585938 6.109374-12.808594zm0 0"/></svg>
